<?xml version="1.0" encoding="UTF-8"?>
<svg xmlns="http://www.w3.org/2000/svg" version="1.1" viewBox="0 0 89.04 87.35">
  <!-- Generator: Adobe Illustrator 28.6.0, SVG Export Plug-In . SVG Version: 1.2.0 Build 709)  -->
  <g>
    <g id="Layer_1">
      <path d="M40.09,39.98c-1.24,4.59-1.87,8.12-3.16,11.39-2.33,5.9-4.32,12.15-7.83,17.32-3.66,5.39-8.71,9.93-13.63,14.3-2.23,1.98-5.6,2.73-8.5,3.9-3.42,1.38-5.4-.45-5.52-3.56C.83,66.92.48,50.51,0,34.09c-.09-2.95,1.51-4.07,4.14-4.56,7.96-1.48,15.9-3.05,24.29-4.67-.95-7.68-1.93-15.49-3.02-24.28C34.31.32,42.72-.04,51.13,0c.98,0,2.57,2.13,2.81,3.46,1.38,7.54-1.91,13.1-8.04,17.04,10.11,9.71,20.16,19.3,27.44,31.17,5.44,8.86,9.99,18.27,14.91,27.45,1.87,3.47.21,4.98-3.15,5.24-8.44.65-16.88,1.26-25.33,1.77-3.27.2-5.38-.8-6.44-4.62-3.44-12.27-7.41-24.39-11.2-36.56-.42-1.33-1.05-2.59-2.04-4.98Z"/>
    </g>
  </g>
</svg>